<?xml version="1.0" encoding="UTF-8" standalone="no"?>
<!-- Uploaded to: SVG Repo, www.svgrepo.com, Generator: SVG Repo Mixer Tools -->

<svg
   width="571.90302"
   height="643.20001"
   viewBox="-52.5 0 258.07124 290.24401"
   preserveAspectRatio="xMidYMid"
   version="1.1"
   id="svg1172"
   sodipodi:docname="css-3-logo-svgrepo-com.svg"
   xmlns:inkscape="http://www.inkscape.org/namespaces/inkscape"
   xmlns:sodipodi="http://sodipodi.sourceforge.net/DTD/sodipodi-0.dtd"
   xmlns="http://www.w3.org/2000/svg"
   xmlns:svg="http://www.w3.org/2000/svg">
  <defs
     id="defs1176" />
  <sodipodi:namedview
     id="namedview1174"
     pagecolor="#ffffff"
     bordercolor="#000000"
     borderopacity="0.25"
     inkscape:showpageshadow="2"
     inkscape:pageopacity="0.0"
     inkscape:pagecheckerboard="0"
     inkscape:deskcolor="#d1d1d1"
     showgrid="false" />
  <path
     d="m 75.995375,289.332 -104.182,-28.922 -23.217,-260.40000433 H 203.70637 L 180.46537,260.37 Z"
     fill="#264de4"
     id="path1162" />
  <path
     d="m 160.56837,243.791 19.86,-222.490004 H 76.151375 V 267.194 Z"
     fill="#2965f1"
     id="path1164" />
  <path
     d="m 1.8203748,117.88 2.862,31.937 H 76.151375 V 117.88 Z m -5.752,-64.641004 2.903,31.937 H 76.151375 v -31.937 z M 76.151375,200.824 l -0.14,0.037 -35.568,-9.604 -2.274,-25.471 H 6.1093748 l 4.4740002,50.146 65.421,18.16 0.147,-0.04 z"
     fill="#ebebeb"
     id="path1166" />
  <path
     d="m 150.27837,117.88 5.765,-64.641004 H 76.041375 v 31.937 H 121.04337 L 118.13737,117.88 H 76.041375 v 31.937 h 39.326995 l -3.708,41.42 -35.619995,9.614 v 33.226 l 65.472995,-18.145 0.48,-5.396 7.506,-84.08 z"
     fill="#ffffff"
     id="path1170" />
</svg>
