<?xml version="1.0" encoding="UTF-8" standalone="no"?>
<!-- Uploaded to: SVG Repo, www.svgrepo.com, Generator: SVG Repo Mixer Tools -->

<svg
   width="572"
   height="643.09998"
   viewBox="-52.5 0 258.115 290.19886"
   preserveAspectRatio="xMinYMin"
   version="1.1"
   id="svg28"
   xmlns="http://www.w3.org/2000/svg"
   xmlns:svg="http://www.w3.org/2000/svg">
  <defs
     id="defs32" />
  <path
     d="m 205.9175,-0.03512457 -23.241,260.36000457 -104.470001,28.962 -104.182,-28.922 -23.217,-260.40000457 z"
     fill="#e44d26"
     id="path18" />
  <path
     d="m 78.362499,267.14888 84.417001,-23.403 19.86,-222.490005 H 78.362499 Z"
     fill="#f16529"
     id="path20" />
  <path
     d="m 33.182499,85.130875 h 45.18 v -31.937 H -1.7205008 l 0.76400004,8.568 7.84999996,88.010005 H 78.362499 v -31.937 h -42.261 z m 7.198,80.610005 H 8.3204992 l 4.4739998,50.146 65.421,18.16 0.147,-0.04 v -33.228 l -0.14,0.037 -35.568,-9.604 z"
     fill="#ebebeb"
     id="path22" />
  <path
     d="M 78.252499,149.77188 H 117.5795 l -3.708,41.42 -35.620001,9.614 v 33.226 l 65.473001,-18.145 0.48,-5.396 7.506,-84.08 0.779,-8.576 H 78.252499 Z m 0,-64.719005 v 0.078 H 155.3955 l 0.64,-7.178 1.456,-16.191 0.763,-8.568 H 78.252499 v 31.86 z"
     fill="#ffffff"
     id="path26" />
</svg>
