<svg width="30" height="30" viewBox="0 0 30 30" fill="white" xmlns="http://www.w3.org/2000/svg">
<g clip-path="url(#clip0_14_39550)">
<path d="M24.2094 18.5839C23.5952 17.9444 22.8544 17.6025 22.0693 17.6025C21.2904 17.6025 20.5433 17.9381 19.9038 18.5776L17.903 20.5721C17.7384 20.4834 17.5737 20.4011 17.4154 20.3188C17.1875 20.2048 16.9722 20.0972 16.7886 19.9832C14.9144 18.7929 13.2112 17.2416 11.5776 15.2345C10.7861 14.234 10.2543 13.3919 9.86805 12.5371C10.3873 12.0623 10.8685 11.5684 11.337 11.0935C11.5143 10.9162 11.6916 10.7326 11.8689 10.5553C13.1985 9.22567 13.1985 7.50344 11.8689 6.17379L10.1403 4.44523C9.94403 4.24895 9.74142 4.04633 9.55147 3.84372C9.17157 3.45115 8.77267 3.04592 8.36111 2.66602C7.74693 2.05818 7.01245 1.73526 6.23999 1.73526C5.46752 1.73526 4.72038 2.05818 4.08721 2.66602C4.08087 2.67235 4.08087 2.67235 4.07454 2.67868L1.92176 4.85046C1.1113 5.66092 0.64909 6.64866 0.547783 7.7947C0.395822 9.64356 0.940348 11.3658 1.35824 12.4928C2.38398 15.2598 3.91625 17.8241 6.202 20.5721C8.97528 23.8836 12.3121 26.4986 16.1238 28.3411C17.5801 29.0312 19.5239 29.848 21.6957 29.9873C21.8286 29.9937 21.9679 30 22.0946 30C23.5572 30 24.7856 29.4745 25.748 28.4297C25.7543 28.4171 25.767 28.4107 25.7733 28.3981C26.1025 27.9992 26.4824 27.6383 26.8813 27.252C27.1536 26.9924 27.4322 26.7202 27.7045 26.4352C28.3313 25.7831 28.6606 25.0233 28.6606 24.2445C28.6606 23.4593 28.325 22.7059 27.6855 22.0727L24.2094 18.5839ZM26.4761 25.2512C26.4698 25.2512 26.4698 25.2575 26.4761 25.2512C26.2292 25.5171 25.9759 25.7577 25.7036 26.0237C25.2921 26.4162 24.8742 26.8278 24.4816 27.29C23.8421 27.9738 23.0887 28.2968 22.1009 28.2968C22.0059 28.2968 21.9046 28.2968 21.8096 28.2904C19.9291 28.1701 18.1816 27.4357 16.8709 26.8088C13.2872 25.0739 10.1403 22.6109 7.52532 19.4894C5.36621 16.887 3.92258 14.481 2.96649 11.8976C2.37765 10.3211 2.16237 9.0927 2.25734 7.934C2.32066 7.19319 2.60559 6.57901 3.13112 6.05348L5.29023 3.89437C5.60048 3.60311 5.92973 3.44482 6.25265 3.44482C6.65155 3.44482 6.97446 3.68543 7.17708 3.88804C7.18341 3.89437 7.18974 3.9007 7.19607 3.90704C7.58231 4.26794 7.94955 4.64151 8.33578 5.04041C8.53206 5.24303 8.73468 5.44564 8.93729 5.65459L10.6658 7.38314C11.337 8.0543 11.337 8.67481 10.6658 9.34597C10.4822 9.52959 10.3049 9.71321 10.1213 9.8905C9.58946 10.435 9.08292 10.9416 8.53206 11.4354C8.5194 11.4481 8.50674 11.4544 8.5004 11.4671C7.95588 12.0116 8.05719 12.5435 8.17116 12.9044C8.17749 12.9234 8.18382 12.9424 8.19015 12.9614C8.6397 14.0504 9.27287 15.0762 10.2353 16.2982L10.2416 16.3045C11.9892 18.4573 13.8317 20.1352 15.8642 21.4205C16.1238 21.5852 16.3897 21.7181 16.643 21.8448C16.8709 21.9587 17.0862 22.0664 17.2698 22.1803C17.2951 22.193 17.3205 22.212 17.3458 22.2247C17.5611 22.3323 17.7637 22.383 17.9726 22.383C18.4982 22.383 18.8274 22.0537 18.9351 21.9461L21.1005 19.7806C21.3158 19.5653 21.6577 19.3057 22.0566 19.3057C22.4492 19.3057 22.7721 19.5527 22.9683 19.768C22.9747 19.7743 22.9747 19.7743 22.981 19.7806L26.4698 23.2694C27.122 23.9152 27.122 24.5801 26.4761 25.2512Z"/>
<path d="M16.7126 7.1362C18.3715 7.41479 19.8785 8.19992 21.0815 9.40295C22.2845 10.606 23.0633 12.1129 23.3483 13.7718C23.4179 14.1897 23.7788 14.481 24.1904 14.481C24.241 14.481 24.2853 14.4746 24.336 14.4683C24.8045 14.3923 25.1148 13.9491 25.0388 13.4806C24.6969 11.4734 23.7472 9.64355 22.2972 8.19359C20.8472 6.74363 19.0174 5.79388 17.0102 5.45197C16.5417 5.37598 16.1048 5.68624 16.0225 6.14845C15.9402 6.61067 16.2441 7.06022 16.7126 7.1362Z"/>
<path d="M30.4652 13.2336C29.9016 9.92848 28.344 6.92092 25.9507 4.52754C23.5573 2.13415 20.5497 0.576553 17.2446 0.0130316C16.7823 -0.0692806 16.3455 0.247305 16.2631 0.709519C16.1872 1.17807 16.4974 1.61495 16.966 1.69727C19.9165 2.19747 22.6075 3.59678 24.7476 5.73056C26.8877 7.87068 28.2807 10.5617 28.7809 13.5122C28.8506 13.9301 29.2115 14.2214 29.623 14.2214C29.6737 14.2214 29.718 14.215 29.7687 14.2087C30.2309 14.1391 30.5475 13.6958 30.4652 13.2336Z"/>
</g>
<defs>
<clipPath id="clip0_14_39550">
<rect width="30" height="30" fill="white" transform="translate(0.5)"/>
</clipPath>
</defs>
</svg>
