<svg width="49" height="48" viewBox="0 0 49 48" fill="none" xmlns="http://www.w3.org/2000/svg">
<path fill-rule="evenodd" clip-rule="evenodd" d="M28.5 10.2917C27.3954 10.2917 26.5 11.1685 26.5 12.25C26.5 12.7913 26.7216 13.2782 27.0858 13.6348C27.45 13.9913 27.9472 14.2083 28.5 14.2083C29.6046 14.2083 30.5 13.3315 30.5 12.25C30.5 11.1685 29.6046 10.2917 28.5 10.2917ZM22.5 12.25C22.5 9.00534 25.1862 6.375 28.5 6.375C31.8138 6.375 34.5 9.00534 34.5 12.25C34.5 15.4947 31.8138 18.125 28.5 18.125C27.5744 18.125 26.6968 17.919 25.9136 17.5521L21.9148 21.4675C22.2896 22.2344 22.5 23.0937 22.5 24C22.5 24.9063 22.2896 25.7656 21.9148 26.5325L25.9136 30.448C26.6968 30.081 27.5744 29.875 28.5 29.875C31.8138 29.875 34.5 32.5052 34.5 35.75C34.5 38.9948 31.8138 41.625 28.5 41.625C25.1862 41.625 22.5 38.9948 22.5 35.75C22.5 34.8437 22.7104 33.9844 23.0852 33.2175L19.0865 29.302C18.3031 29.669 17.4255 29.875 16.5 29.875C13.1863 29.875 10.5 27.2448 10.5 24C10.5 20.7552 13.1863 18.125 16.5 18.125C17.4255 18.125 18.3031 18.331 19.0865 18.6979L23.0852 14.7826C22.7104 14.0156 22.5 13.1563 22.5 12.25ZM16.5 22.0417C15.3954 22.0417 14.5 22.9184 14.5 24C14.5 25.0816 15.3954 25.9583 16.5 25.9583C17.0528 25.9583 17.5501 25.7414 17.9142 25.3847C18.2783 25.0281 18.5 24.5413 18.5 24C18.5 23.4587 18.2783 22.9719 17.9142 22.6153C17.5501 22.2587 17.0528 22.0417 16.5 22.0417ZM28.5 33.7917C27.9472 33.7917 27.45 34.0086 27.0858 34.3653C26.7216 34.7219 26.5 35.2087 26.5 35.75C26.5 36.8316 27.3954 37.7083 28.5 37.7083C29.6046 37.7083 30.5 36.8316 30.5 35.75C30.5 34.6684 29.6046 33.7917 28.5 33.7917Z" fill="white"/>
</svg>
